HIERARCHY
ROOT Hips
{
  OFFSET 0 89.5146 0.535
  CHANNELS 6 Xposition Yposition Zposition Zrotation Xrotation Yrotation
  JOINT Spine
  {
    OFFSET 12.0259 -0.162855 1.69034e-005
    CHANNELS 3 Zrotation Xrotation Yrotation
    JOINT Spine1
    {
      OFFSET 15.3169 -0.0121922 0
      CHANNELS 3 Zrotation Xrotation Yrotation
      JOINT Spine2
      {
        OFFSET 15.3176 -0.0121908 0
        CHANNELS 3 Zrotation Xrotation Yrotation
        JOINT Neck
        {
          OFFSET 19.9142 1.56338 0
          CHANNELS 3 Zrotation Xrotation Yrotation
          JOINT Head
          {
            OFFSET 6.92651 0 0
            CHANNELS 3 Zrotation Xrotation Yrotation
            End Site
            {
              OFFSET 20.7666 0 0
            }
          }
          JOINT LeftShoulder
          {
            OFFSET -6.20654 0.708824 7.28219
            CHANNELS 3 Zrotation Xrotation Yrotation
            JOINT LeftArm
            {
              OFFSET 14.108 0 -1.52588e-005
              CHANNELS 3 Zrotation Xrotation Yrotation
              JOINT LeftForeArm
              {
                OFFSET 28.5802 0 0
                CHANNELS 3 Zrotation Xrotation Yrotation
                JOINT LeftHand
                {
                  OFFSET 27.092 0 0
                  CHANNELS 3 Zrotation Xrotation Yrotation
                  End Site
                  {
                    OFFSET 9.55928 -0.186424 0.145352
                  }
                }
              }
            }
          }
          JOINT RightShoulder
          {
            OFFSET -6.20654 0.708866 -7.28218
            CHANNELS 3 Zrotation Xrotation Yrotation
            JOINT RightArm
            {
              OFFSET 14.108 0 1.52588e-005
              CHANNELS 3 Zrotation Xrotation Yrotation
              JOINT RightForeArm
              {
                OFFSET 28.5802 0 0
                CHANNELS 3 Zrotation Xrotation Yrotation
                JOINT RightHand
                {
                  OFFSET 27.092 0 0
                  CHANNELS 3 Zrotation Xrotation Yrotation
                  End Site
                  {
                    OFFSET 9.55929 -0.186417 -0.145354
                  }
                }
              }
            }
          }
        }
      }
    }
  }
  JOINT LeftUpLeg
  {
    OFFSET 0.005 -0.535 8.837
    CHANNELS 3 Zrotation Xrotation Yrotation
    JOINT LeftLeg
    {
      OFFSET 39.9035 0 0
      CHANNELS 3 Zrotation Xrotation Yrotation
      JOINT LeftFoot
      {
        OFFSET 39.6689 0 0
        CHANNELS 3 Zrotation Xrotation Yrotation
        JOINT LeftToe
        {
          OFFSET 10.1624 13.6296 0
          CHANNELS 3 Zrotation Xrotation Yrotation
          End Site
          {
            OFFSET 8.38147 0 0
          }
        }
      }
    }
  }
  JOINT RightUpLeg
  {
    OFFSET 0.005 -0.535 -8.837
    CHANNELS 3 Zrotation Xrotation Yrotation
    JOINT RightLeg
    {
      OFFSET 39.9035 0 0
      CHANNELS 3 Zrotation Xrotation Yrotation
      JOINT RightFoot
      {
        OFFSET 39.6689 0 0
        CHANNELS 3 Zrotation Xrotation Yrotation
        JOINT RightToe
        {
          OFFSET 10.1624 13.6296 0
          CHANNELS 3 Zrotation Xrotation Yrotation
          End Site
          {
            OFFSET 8.38147 0 0
          }
        }
      }
    }
  }
}
MOTION
Frames:	13
Frame Time:	0.0333333
-3.12199 87.8087 -65.1978 84.1348 44.6375 6.06778 8.22689 -2.67388 -3.55522 6.91601 1.70754e-006 5.12264e-006 -5.12265e-006 1.70755e-006 -8.53773e-006 1.70748e-006 -8.53774e-006 -4.95189e-005 15.5856 -35.7846 8.43889 -178.498 -8.5042 -79.9424 -10.8544 4.13356 47.3225 -70.4135 -3.37934e-015 -3.18055e-015 13.6587 -54.7732 5.52677 179.813 -0.893335 78.2039 -16.2583 -5.10326 -57.5679 -47.9554 3.18055e-015 6.36111e-015 49.3585 75.1344 -41.5137 -3.86548 8.66411 -173.629 -19.9264 0 1.19271e-015 12.8249 5.65734 -4.30716 90 0 3.18055e-015 -17.1291 -12.7141 164.105 -15.6907 0 -3.97569e-015 -9.83386 18.1611 16.6233 90 0 3.18055e-015 
-4.84479 87.8243 -65.597 83.6272 45.3799 5.91572 8.36641 -2.6862 -2.37447 6.99204 1.70754e-006 5.12264e-006 -5.12265e-006 1.70755e-006 -8.53773e-006 1.70748e-006 -8.53774e-006 -4.95189e-005 15.3842 -35.4158 7.99204 -178.489 -8.60128 -79.9958 -9.82933 3.96202 49.0599 -71.0043 1.98785e-015 -3.18055e-015 13.86 -54.6042 5.46694 179.853 -0.716584 78.4037 -17.3069 -5.63239 -57.4231 -48.124 0 -7.95139e-015 48.9416 74.5551 -40.8214 -3.26278 7.97119 -172.295 -19.8811 -6.36111e-015 -2.78299e-015 12.716 5.43306 -3.71797 90 3.97569e-016 3.18055e-015 -17.1186 -13.6099 165.236 -18.0962 -3.18056e-015 -7.95139e-016 -7.51347 18.4188 14.4127 90 1.59028e-015 1.59028e-015 
-6.49971 87.9003 -66.0781 83.6435 46.2328 5.5273 8.32151 -2.60533 -1.44655 6.95437 1.70754e-006 5.12264e-006 -5.12265e-006 1.70755e-006 -8.53773e-006 1.70748e-006 -8.53774e-006 -4.95189e-005 15.412 -35.2615 8.37836 -178.449 -8.72213 -79.8765 -8.92591 4.18404 50.6399 -71.9487 1.39149e-015 3.18055e-015 14.0286 -54.502 5.80866 179.899 -0.476253 78.0577 -18.1545 -6.49774 -56.6871 -48.7318 -6.36111e-015 4.77083e-015 48.8673 74.3437 -40.8972 -3.37616 8.00864 -171.043 -20.3281 -3.18055e-015 3.18055e-015 13.2562 5.5774 -2.23286 90 0 -0 -16.5505 -13.9608 166.611 -19.0888 3.18056e-015 -0 -5.53738 19.5179 12.8003 90 7.95139e-016 3.18055e-015 
-8.00769 88.0919 -66.5762 83.8812 47.356 5.19463 8.23488 -2.82022 -0.72586 6.89375 1.70754e-006 5.12264e-006 -5.12265e-006 1.70755e-006 -8.53773e-006 1.70748e-006 -8.53774e-006 -4.95189e-005 15.452 -34.8787 8.91415 -178.363 -8.8332 -79.4597 -8.37053 4.81933 51.827 -72.8673 -1.98785e-015 9.54166e-015 13.7074 -55.4229 5.76342 179.912 -0.398309 77.5931 -18.7382 -7.17251 -55.8019 -49.0747 3.18055e-015 4.77083e-015 49.0352 74.5377 -41.3183 -3.79432 8.35262 -170.223 -20.672 -6.36111e-015 2.78299e-015 13.5227 5.67281 0.675863 90 7.95139e-016 -3.18055e-015 -15.7271 -14.3778 167.785 -19.1029 3.18056e-015 -7.95139e-016 -4.11496 20.638 11.6436 90 -7.95139e-016 -3.18055e-015 
-9.40486 88.3643 -67.0821 84.1905 48.5397 4.93624 8.1548 -2.9884 -0.129096 6.89854 1.70754e-006 5.12264e-006 -5.12265e-006 1.70755e-006 -8.53773e-006 1.70748e-006 -8.53774e-006 -4.95189e-005 15.3766 -34.7177 9.36456 -178.348 -8.8597 -79.3937 -8.33324 5.68578 53.271 -73.4678 -6.75868e-015 -0 14.2157 -55.5098 6.16561 179.952 -0.217141 77.5687 -19.2037 -7.27025 -55.4232 -49.1001 0 -3.18055e-015 49.2604 74.2714 -41.4653 -4.85577 8.4388 -169.369 -21.7742 9.54166e-015 1.59028e-015 12.8932 5.7844 2.23165 90 1.59028e-015 -0 -14.7383 -14.7432 168.873 -18.5037 0 -0 -3.18143 21.8512 10.7206 90 -1.59028e-015 -0 
-10.6623 88.6506 -67.6092 84.4777 49.7136 4.86637 8.21708 -2.97529 0.320364 6.93636 1.70754e-006 5.12264e-006 -5.12265e-006 1.70755e-006 -8.53773e-006 1.70748e-006 -8.53774e-006 -4.95189e-005 15.0545 -34.9838 9.53684 -178.377 -8.75354 -79.4539 -8.87754 6.7886 54.5033 -74.0082 -5.56597e-015 -0 15.1435 -54.8036 6.98537 179.975 -0.115511 77.8517 -19.2675 -7.03541 -55.3336 -49.1478 -3.18055e-015 3.18055e-015 47.4979 73.9868 -39.4919 -6.15962 8.03489 -168.632 -23.2307 3.18055e-015 7.95139e-016 11.6815 5.72923 2.91364 90 7.95139e-016 -0 -13.835 -15.4129 169.707 -17.6339 0 2.38542e-015 -2.51373 22.7015 9.7192 90 7.95139e-016 -0 
-11.785 88.8913 -68.1551 84.82 50.6608 4.84206 8.37187 -2.67159 0.68627 6.9953 1.70754e-006 5.12264e-006 -5.12265e-006 1.70755e-006 -8.53773e-006 1.70748e-006 -8.53774e-006 -4.95189e-005 14.531 -35.4128 9.42863 -178.399 -8.56521 -79.3702 -9.80707 8.08616 55.2217 -74.5895 -5.56597e-015 -0 15.4416 -54.3393 7.59014 179.972 -0.135504 78.1695 -19.3036 -6.73908 -55.1477 -49.3216 6.36111e-015 3.18055e-015 48.9332 74.2338 -41.0823 -7.48996 7.62425 -168.061 -24.639 3.18055e-015 -3.18055e-015 10.311 5.45579 3.37822 90 -1.98785e-015 -3.18055e-015 -13.1415 -15.8402 170.406 -16.8812 6.36111e-015 7.95139e-016 -1.87869 23.4176 8.87454 90 -7.95139e-016 -1.59028e-015 
-12.8176 89.0661 -68.7104 85.1689 51.3505 4.82202 8.55203 -2.22757 0.983286 7.0815 1.70754e-006 5.12264e-006 -5.12265e-006 1.70755e-006 -8.53773e-006 1.70748e-006 -8.53774e-006 -4.95189e-005 14.0785 -35.7636 9.11895 -178.396 -8.52761 -79.3041 -10.998 9.3009 55.7162 -75.1498 -5.56597e-015 3.18055e-015 16.0625 -54.4921 8.25178 179.943 -0.278423 78.498 -19.6367 -6.43493 -54.7684 -49.36 1.59028e-015 -2.38542e-015 48.3617 74.3097 -40.5238 -8.76314 7.18934 -167.576 -26.0043 6.36111e-015 1.98785e-015 8.91215 4.8581 3.5345 90 -4.96962e-015 -9.54166e-015 -12.8077 -16.4929 170.957 -16.4862 -6.36111e-015 -0 -1.18226 23.5676 7.88541 90 -3.97569e-016 -1.59028e-015 
-13.8114 89.1858 -69.224 85.3932 51.9268 4.864 8.72459 -1.82674 1.26498 7.17609 1.70754e-006 5.12264e-006 -5.12265e-006 1.70755e-006 -8.53773e-006 1.70748e-006 -8.53774e-006 -4.95189e-005 13.9149 -35.8456 8.68189 -178.386 -8.54587 -79.2618 -12.0983 10.493 56.0721 -75.7664 -3.18055e-015 -3.18055e-015 16.5439 -54.0356 8.7153 179.915 -0.427235 78.806 -20.2693 -6.11219 -54.234 -49.2949 -1.59028e-015 -3.18055e-015 47.1709 73.9901 -39.2066 -9.86389 6.70311 -167.114 -27.2791 3.18055e-015 8.74653e-015 7.66958 4.34957 3.76951 90 7.15625e-015 -9.54166e-015 -12.5263 -16.9395 171.506 -16.3592 -6.36111e-015 -1.19271e-015 -0.40477 23.8346 6.95459 90 -3.97569e-016 -0 
-14.7524 89.2783 -69.7412 85.4799 52.4939 5.00827 8.98847 -1.54608 1.46678 7.22768 1.70754e-006 5.12264e-006 -5.12265e-006 1.70755e-006 -8.53773e-006 1.70748e-006 -8.53774e-006 -4.95189e-005 13.8253 -35.9208 8.31343 -178.381 -8.61567 -79.3167 -13.1287 11.4944 56.3933 -76.311 -1.19271e-014 -9.54166e-015 16.8892 -53.4687 8.997 179.889 -0.570911 78.997 -20.9072 -5.69286 -53.569 -49.3737 0 -0 46.0068 73.6656 -38.0882 -10.9267 6.24605 -166.685 -28.5584 -3.18055e-015 2.78299e-015 6.37031 3.74696 3.97621 90 9.93923e-017 -6.36111e-015 -12.3177 -17.5201 171.968 -16.4104 -3.18056e-015 -0 0.403275 23.9515 6.11376 90 3.97569e-016 -3.18055e-015 
-15.6752 89.3656 -70.2118 85.3629 53.1588 5.2951 9.22562 -1.34274 1.64951 7.32297 1.70754e-006 5.12264e-006 -5.12265e-006 1.70755e-006 -8.53773e-006 1.70748e-006 -8.53774e-006 -4.95189e-005 13.8494 -36.1548 8.04021 -178.392 -8.57777 -79.3408 -14.007 12.4159 56.5605 -76.779 -3.18055e-015 -0 16.7203 -52.9942 9.07698 179.871 -0.672544 79.1452 -21.1841 -5.12005 -52.9624 -49.4866 -4.77083e-015 7.95139e-016 45.3433 73.4738 -37.4003 -11.9234 5.86864 -166.27 -29.7849 -3.18055e-015 -1.59028e-015 4.95165 3.13625 4.10646 90 5.1684e-015 -0 -11.8157 -17.6927 172.532 -16.2992 0 -1.59028e-015 1.09949 24.5246 5.28674 90 0 -0 
-16.6192 89.428 -70.6353 85.1199 53.786 5.65119 9.37161 -1.18966 1.77237 7.41981 1.70754e-006 5.12264e-006 -5.12265e-006 1.70755e-006 -8.53773e-006 1.70748e-006 -8.53774e-006 -4.95189e-005 13.999 -36.3582 7.72556 -178.406 -8.58196 -79.4392 -14.5744 13.1105 56.7252 -77.3372 -4.77083e-015 -3.18055e-015 17.3636 -52.8371 9.52179 179.851 -0.79017 79.3542 -21.1217 -4.37664 -52.6504 -49.6199 0 -1.59028e-015 44.9313 73.5596 -37.009 -12.6756 5.20407 -165.948 -30.8932 6.36111e-015 2.38542e-015 3.67271 2.39333 4.36439 90 -2.5842e-015 3.18055e-015 -11.3062 -17.7802 173.105 -16.3871 -1.27222e-014 -7.95139e-016 1.91052 25.1336 4.57013 90 -3.97569e-016 -4.77083e-015 
-17.5613 89.4525 -71.0237 84.8253 54.2227 5.99476 9.48436 -0.94866 1.88207 7.47163 1.70754e-006 5.12264e-006 -5.12265e-006 1.70755e-006 -8.53773e-006 1.70748e-006 -8.53774e-006 -4.95189e-005 14.038 -36.6712 7.29133 -178.396 -8.6575 -79.4594 -14.9697 13.6924 56.7174 -77.8152 -1.59028e-015 3.18055e-015 17.2245 -52.7087 9.53402 179.844 -0.851512 79.5929 -21.046 -3.59012 -52.5262 -49.7755 1.59028e-015 -3.97569e-015 44.1558 73.7258 -36.2872 -13.3971 4.73969 -165.55 -32.0322 -3.18055e-015 -3.18055e-015 2.38249 1.39508 4.40803 90 9.93923e-016 -3.18055e-015 -10.7429 -17.3354 173.818 -16.5367 3.18056e-015 -3.97569e-016 2.71705 25.9989 3.78946 90 -7.95139e-016 -0 
